<?xml version="1.0" encoding="UTF-8" ?>
<!DOCTYPE svg PUBLIC "-//W3C//DTD SVG 1.1//EN" "http://www.w3.org/Graphics/SVG/1.1/DTD/svg11.dtd">
<svg width="32pt" height="32pt" viewBox="0 0 32 32" version="1.1" xmlns="http://www.w3.org/2000/svg">
<path fill="#c3c3c3" opacity="0.76" d=" M 12.52 8.57 C 13.72 5.44 17.36 4.80 20.02 3.39 C 19.05 6.45 15.42 7.90 12.52 8.57 Z" />
<path fill="#c3c3c3" opacity="0.76" d=" M 23.63 9.61 C 26.35 8.71 29.00 5.80 32.00 6.96 L 32.00 7.52 C 28.32 9.19 25.43 12.28 21.60 13.63 C 19.61 12.42 22.04 9.95 23.63 9.61 Z" />
<path fill="#c3c3c3" opacity="0.76" d=" M 9.51 8.70 C 10.27 7.54 11.94 8.36 11.91 9.55 C 10.45 11.40 7.67 11.15 6.01 12.76 C 3.80 14.47 3.75 17.60 1.93 19.63 C 1.14 14.41 5.75 11.20 9.51 8.70 Z" />
<path fill="#c3c3c3" opacity="0.76" d=" M 11.93 16.93 C 14.10 15.88 15.38 13.20 17.90 12.94 C 18.87 13.65 19.24 14.60 19.00 15.79 C 15.69 17.15 12.06 17.92 9.16 20.14 C 5.99 21.93 3.84 25.48 0.00 25.98 L 0.00 25.54 C 3.74 22.35 7.60 19.30 11.93 16.93 Z" />
<path fill="#c3c3c3" opacity="0.76" d=" M 24.26 20.42 C 26.20 18.33 29.21 17.31 32.00 17.02 L 32.00 17.51 C 29.97 18.64 28.27 20.27 26.22 21.35 C 25.47 22.17 23.53 21.79 24.26 20.42 Z" />
<path fill="#c3c3c3" opacity="0.76" d=" M 20.35 21.98 C 21.39 21.55 22.49 21.70 23.56 21.95 C 21.94 24.74 18.14 24.86 15.65 26.67 C 13.01 28.19 8.57 29.74 6.24 27.02 C 11.48 27.76 16.62 25.60 20.35 21.98 Z" />
</svg>
