<?xml version="1.0" encoding="UTF-8" ?>
<!DOCTYPE svg PUBLIC "-//W3C//DTD SVG 1.1//EN" "http://www.w3.org/Graphics/SVG/1.1/DTD/svg11.dtd">
<svg width="64pt" height="64pt" viewBox="0 0 64 64" version="1.1" xmlns="http://www.w3.org/2000/svg">
<path fill="#fefefe" opacity="1.00" d=" M 53.96 12.48 C 56.53 15.19 60.16 17.00 61.96 20.37 C 61.19 22.69 62.22 25.80 60.24 27.53 C 59.30 30.30 62.22 32.25 61.38 34.96 C 54.25 35.63 46.51 33.67 40.01 37.43 C 40.76 39.68 41.42 41.96 41.90 44.28 C 39.58 44.74 37.27 45.25 34.92 45.42 C 31.97 45.11 32.35 41.73 31.17 39.77 C 29.53 36.85 27.28 34.02 24.12 32.69 C 25.24 32.27 26.37 31.88 27.52 31.52 C 29.49 28.86 30.28 25.63 30.14 22.35 C 31.43 23.06 32.74 23.74 34.06 24.39 C 33.37 24.90 32.00 25.94 31.31 26.46 C 34.01 26.67 36.71 26.73 39.42 26.75 C 40.28 28.16 40.75 30.55 42.94 29.99 C 48.05 29.84 53.27 30.36 58.31 29.34 C 52.81 27.50 47.01 29.50 41.38 28.93 C 41.06 28.05 40.43 26.29 40.11 25.41 C 42.10 25.34 44.09 25.27 46.08 25.21 C 46.71 26.12 47.34 27.04 47.96 27.96 C 51.20 27.93 54.44 27.96 57.67 27.74 C 58.21 26.23 57.85 24.36 59.10 23.16 C 58.49 22.89 57.88 22.62 57.27 22.34 C 58.74 21.08 58.00 19.25 57.42 17.80 C 57.18 19.22 56.97 20.65 56.79 22.08 C 49.23 23.05 41.59 23.31 33.99 23.80 C 32.69 22.50 31.33 20.89 29.35 21.91 C 29.04 25.24 29.15 29.43 25.77 31.29 C 23.19 29.18 19.84 28.55 16.68 27.81 C 16.62 27.04 16.50 25.50 16.43 24.73 C 17.60 23.37 18.31 21.70 19.31 20.22 C 20.78 19.50 22.40 19.19 23.97 18.76 C 25.89 19.50 27.98 20.15 30.06 19.73 C 38.05 18.45 46.07 17.39 54.06 16.16 C 54.04 15.24 53.99 13.40 53.96 12.48 M 19.60 22.06 C 20.93 22.20 23.51 21.62 23.81 20.23 C 22.45 19.93 19.69 20.44 19.60 22.06 M 29.99 31.28 L 30.03 32.24 C 39.44 31.99 48.87 32.26 58.27 31.75 C 57.27 31.20 56.20 30.96 55.08 31.01 C 46.72 31.18 38.35 31.19 29.99 31.28 Z" />
<path fill="#fefefe" opacity="1.00" d=" M 55.62 22.61 C 56.26 22.96 56.89 23.31 57.53 23.67 C 57.38 24.53 57.08 26.25 56.93 27.11 C 54.27 27.46 51.59 27.46 48.92 27.49 C 48.00 26.33 47.10 25.16 46.20 23.98 C 49.34 23.75 52.49 23.48 55.65 23.42 L 55.62 22.61 Z" />
<path fill="#fefefe" opacity="1.00" d=" M 11.99 30.69 C 16.07 27.67 20.88 29.60 25.06 31.28 C 20.89 33.21 16.34 30.56 11.99 30.69 Z" />
<path fill="#fefefe" opacity="1.00" d=" M 8.11 29.82 C 8.28 31.24 8.28 32.67 8.12 34.09 C 8.71 33.18 9.10 31.88 10.37 31.75 C 14.87 31.65 19.25 32.85 23.73 32.96 C 25.69 34.51 27.49 36.23 29.15 38.09 C 28.82 40.18 29.57 42.10 31.04 43.58 C 33.38 47.90 38.40 45.83 42.13 45.18 C 42.06 45.85 41.94 47.17 41.88 47.84 C 35.81 50.47 29.03 50.88 22.50 51.29 C 21.99 46.67 21.47 41.37 17.59 38.24 C 14.37 36.21 9.49 35.01 6.43 37.93 C 10.91 36.38 16.28 37.18 19.29 41.10 C 17.95 41.62 16.59 42.14 15.24 42.65 C 12.76 39.97 8.82 39.53 5.88 41.72 C 5.35 41.21 4.30 40.20 3.77 39.69 C 5.44 37.17 7.23 34.62 6.92 31.41 L 8.11 29.82 Z" />
<path fill="#fefefe" opacity="1.00" d=" M 3.22 40.49 C 4.09 41.31 4.93 42.14 5.78 42.98 C 7.35 42.17 8.91 40.94 10.78 41.11 C 12.47 41.39 13.68 42.73 14.96 43.76 C 16.47 43.19 17.99 42.62 19.51 42.04 C 20.90 44.93 21.27 48.13 21.49 51.29 C 17.89 51.12 14.28 50.87 10.71 50.32 C 10.90 48.84 11.10 47.36 11.43 45.90 C 9.79 45.64 8.14 45.39 6.50 45.16 C 6.51 46.65 6.53 48.15 6.54 49.64 C 5.05 49.27 3.57 48.90 2.09 48.52 C 1.79 45.78 2.43 43.09 3.22 40.49 Z" />
<path fill="#fefefe" opacity="1.00" d=" M 7.99 46.92 C 9.60 45.59 10.55 48.64 9.62 49.68 C 8.07 50.83 6.86 47.94 7.99 46.92 Z" />
</svg>
